<?xml version="1.0" encoding="UTF-8"?>
<svg version="1.1" xmlns="http://www.w3.org/2000/svg" width="3300" height="2550">
<path d="M0 0 C2.05057546 -0.0131864 4.10113228 -0.02963082 6.1516571 -0.04916382 C10.45055746 -0.07584825 14.7464725 -0.05825981 19.04516602 -0.01025391 C24.50327454 0.04655401 29.95266241 -0.01279526 35.40998554 -0.10752296 C39.64989326 -0.16652434 43.88779536 -0.15826505 48.12795067 -0.13148117 C50.13585355 -0.12722775 52.14392918 -0.14369695 54.15145302 -0.18294144 C69.77049559 -0.43635883 78.68498248 3.77710503 90.41772938 14.01516438 C92.94886632 16.20431215 95.59299848 18.18781033 98.28125 20.1796875 C99.90057761 21.4233888 101.51909464 22.66814635 103.13671875 23.9140625 C109.35753528 28.6798773 115.61338902 33.36454012 122.02001953 37.87695312 C127.08928102 41.46083066 132.05219994 45.18023712 137.01171875 48.9140625 C143.61326162 53.88398826 150.23081969 58.82961905 156.88671875 63.7265625 C158.05811401 64.58870361 158.05811401 64.58870361 159.25317383 65.46826172 C163.165868 68.34611031 167.0818775 71.21939136 171 74.08984375 C180.35843655 80.95483919 189.62480863 87.92689231 198.83935547 94.98388672 C204.13574928 99.02921035 209.48524169 102.96812882 214.9387207 106.79785156 C220.33833437 110.61641532 225.57613542 114.64088766 230.82421875 118.6640625 C236.61920511 123.10553528 242.41679143 127.52227443 248.38671875 131.7265625 C255.28659254 136.58726973 262.02102026 141.65846763 268.75024414 146.75219727 C269.57387451 147.37408936 270.39750488 147.99598145 271.24609375 148.63671875 C271.9844043 149.19625244 272.72271484 149.75578613 273.48339844 150.33227539 C275.28746209 151.71316075 275.28746209 151.71316075 277.32421875 152.6640625 C275.08995252 160.46017866 272.47218194 168.09029796 269.74609375 175.7265625 C269.29826505 176.98652922 268.85064869 178.24657142 268.40322876 179.50668335 C267.21040978 182.86416088 266.01455539 186.22054951 264.81804657 189.57671356 C263.5626917 193.099523 262.31010784 196.62331763 261.05712891 200.14697266 C258.14992723 208.32068005 255.23764957 216.49257371 252.32421875 224.6640625 C251.94769165 225.72040894 251.57116455 226.77675537 251.18322754 227.8651123 C247.54628626 238.0683134 243.90296172 248.26922098 240.25488281 258.46844482 C236.37337239 269.32085706 232.49806031 280.17548317 228.62200928 291.02984619 C226.49687051 296.98089439 224.37147085 302.93184942 222.24609375 308.8828125 C221.41601434 311.20703079 220.58593621 313.53124954 219.75585938 315.85546875 C211.04003906 340.25976562 211.04003906 340.25976562 202.32421875 364.6640625 C202.79501358 364.33164047 203.26580841 363.99921844 203.75086975 363.65672302 C205.93282347 362.11613272 208.11484896 360.57564411 210.296875 359.03515625 C211.03699829 358.51256226 211.77712158 357.98996826 212.53967285 357.45153809 C217.00208423 354.30124331 221.46719426 351.15482433 225.93476868 348.01185608 C232.39407107 343.46761592 238.81042177 338.86935717 245.19921875 334.2265625 C251.39959516 329.7231383 257.67136543 325.34299545 264.01171875 321.0390625 C270.35793095 316.73077801 276.60353558 312.32069517 282.7668457 307.75512695 C290.19303938 302.26032047 297.76437516 296.97258501 305.32421875 291.6640625 C313.96631762 285.5904823 322.58584423 279.49062095 331.13671875 273.2890625 C338.32276662 268.07783026 345.57698817 262.97131199 352.86035156 257.8972168 C358.41195539 254.0225928 363.91253557 250.08464579 369.38671875 246.1015625 C376.29975402 241.07376177 383.31810564 236.22188279 390.39257812 231.42456055 C396.28739528 227.41267364 402.06496762 223.26252985 407.78198242 219.00146484 C412.54511235 215.45578046 414.65693805 214.53912763 420.60098267 214.54380798 C421.57747318 214.54252635 421.57747318 214.54252635 422.57369077 214.54121882 C424.76481233 214.53956583 426.95585809 214.54508242 429.14697266 214.55053711 C430.71375019 214.55081905 432.28052785 214.55066112 433.8473053 214.5500946 C438.10945913 214.54980688 442.371585 214.55569953 446.63373232 214.56266856 C451.08470806 214.5689063 455.53568438 214.56950623 459.98666382 214.57069397 C468.41914523 214.57380604 476.85161373 214.58201777 485.28408945 214.59204346 C494.88250041 214.60320844 504.48091198 214.60871602 514.07932782 214.61373889 C533.82763202 214.62420047 553.57592457 214.64179753 573.32421875 214.6640625 C570.53037056 217.47343326 567.76963174 220.23288456 564.71484375 222.7578125 C563.72000977 223.58055664 563.72000977 223.58055664 562.70507812 224.41992188 C562.00189453 224.99548828 561.29871094 225.57105469 560.57421875 226.1640625 C559.82978516 226.77572266 559.08535156 227.38738281 558.31835938 228.01757812 C552.5466187 232.73108543 546.6555865 237.26884803 540.7109375 241.76098633 C534.81675615 246.23521814 529.10984624 250.91221901 523.42016602 255.64233398 C518.250811 259.93026996 512.97965365 264.04026742 507.6328125 268.10546875 C503.79803948 271.0448007 500.06370366 274.10504777 496.32421875 277.1640625 C490.518043 281.91269219 484.63315359 286.52259733 478.66796875 291.0703125 C474.82534994 294.02617313 471.07670565 297.09514057 467.32421875 300.1640625 C461.51798002 304.91261827 455.63315698 309.52259474 449.66796875 314.0703125 C445.82534994 317.02617313 442.07670565 320.09514057 438.32421875 323.1640625 C432.51798002 327.91261827 426.63315698 332.52259474 420.66796875 337.0703125 C416.82534994 340.02617313 413.07670565 343.09514057 409.32421875 346.1640625 C403.53229428 350.90091155 397.66366174 355.50152562 391.7109375 360.03515625 C386.89755499 363.7369768 382.2151562 367.60412649 377.52734375 371.46289062 C376.87894531 371.99462891 376.23054688 372.52636719 375.5625 373.07421875 C374.98540283 373.54996338 374.40830566 374.02570801 373.8137207 374.51586914 C372.32421875 375.6640625 372.32421875 375.6640625 370.32421875 376.6640625 C397.71421875 376.9940625 425.10421875 377.3240625 453.32421875 377.6640625 C452.41519108 382.20920087 451.03313529 385.99766156 449.18359375 390.19140625 C448.8657341 390.9228334 448.54787445 391.65426056 448.22038269 392.40785217 C447.1762119 394.80776759 446.12520356 397.20462428 445.07421875 399.6015625 C444.33618022 401.2947085 443.59863748 402.98807069 442.86157227 404.68164062 C441.37439752 408.09721231 439.88481079 411.51171466 438.39306641 414.92529297 C435.66724537 421.16491261 432.96483528 427.41457658 430.26171875 433.6640625 C429.21905896 436.07044706 428.17615469 438.47672389 427.1328125 440.8828125 C426.85156525 441.53141739 426.57031799 442.18002228 426.2805481 442.84828186 C420.95170278 455.13600075 415.61846344 467.42181438 410.28610229 479.70800781 C404.79557647 492.35862774 399.30541172 505.00939568 393.82421875 517.6640625 C387.31872273 532.683582 380.80080806 547.69771041 374.28417969 562.71240234 C368.79429558 575.36155778 363.30477622 588.01086287 357.82421875 600.6640625 C353.84862115 609.8426963 349.86879616 619.01948802 345.88671875 628.1953125 C345.39617508 629.32568436 344.90563141 630.45605621 344.40022278 631.62068176 C341.86584778 637.46046494 339.33105784 643.3000676 336.7956543 649.1394043 C332.55334081 658.9109618 328.3118209 668.68279249 324.09375 678.46484375 C323.48960442 679.86459243 322.88543877 681.26433246 322.28125 682.6640625 C321.2279629 685.10441194 320.17756735 687.54593324 319.12890625 689.98828125 C318.67386719 691.04273438 318.21882813 692.0971875 317.75 693.18359375 C317.37270752 694.06120361 316.99541504 694.93881348 316.60668945 695.84301758 C314.94555256 699.49701277 313.11927065 703.0739587 311.32421875 706.6640625 C265.12421875 706.6640625 218.92421875 706.6640625 171.32421875 706.6640625 C182.67552141 680.55606637 182.67552141 680.55606637 187.62982178 670.14370728 C189.23121458 666.77595018 190.81871007 663.40164804 192.40625 660.02734375 C192.89502625 658.98875465 192.89502625 658.98875465 193.39367676 657.92918396 C196.89457115 650.4747963 200.30246059 642.97884233 203.69921875 635.4765625 C204.9476966 632.71995233 206.19633021 629.9634129 207.4453125 627.20703125 C207.75941071 626.51382782 208.07350891 625.82062439 208.39712524 625.10641479 C212.15525427 616.8201666 215.95864793 608.55475421 219.76171875 600.2890625 C225.31717508 588.21200407 230.86211572 576.13026889 236.38671875 564.0390625 C236.71485565 563.3209137 237.04299255 562.60276489 237.381073 561.862854 C239.03437702 558.24428073 240.68741488 554.62558595 242.34033203 551.00683594 C245.33336388 544.45449806 248.32881074 537.90326428 251.32403564 531.35192871 C252.32213945 529.16861089 253.32003592 526.98519842 254.31787109 524.80175781 C257.34250353 518.18367318 260.36828008 511.5661229 263.39962769 504.95111084 C264.77506955 501.94936881 266.14964302 498.94722945 267.52416992 495.94506836 C268.1562334 494.56515425 268.78868367 493.18541719 269.42163086 491.8059082 C276.1528109 477.13472102 282.7208984 462.39454635 289.32421875 447.6640625 C228.93421875 447.1690625 228.93421875 447.1690625 167.32421875 446.6640625 C166.66421875 448.6440625 166.00421875 450.6240625 165.32421875 452.6640625 C164.48679135 454.70500761 163.6245047 456.73586839 162.7421875 458.7578125 C162.22914063 459.93730469 161.71609375 461.11679688 161.1875 462.33203125 C160.6289266 463.6093839 160.07033227 464.8867274 159.51171875 466.1640625 C158.92811482 467.50378841 158.3447865 468.8436344 157.76171875 470.18359375 C156.55103337 472.96530965 155.33916764 475.74650679 154.12646484 478.52734375 C151.61686737 484.28450728 149.1217098 490.04791511 146.62646484 495.81130981 C145.27247282 498.93829588 143.91744399 502.06483259 142.5625 505.19140625 C142.29370026 505.81172226 142.02490051 506.43203827 141.74795532 507.07115173 C139.89224352 511.35358774 138.03604084 515.63581079 136.1796875 519.91796875 C130.22119853 533.66378983 124.26943793 547.41249669 118.32421875 561.1640625 C113.43267674 572.47842449 108.53861049 583.79168022 103.63671875 595.1015625 C103.37291412 595.71023163 103.1091095 596.31890076 102.83731079 596.9460144 C100.47876194 602.38764545 98.11973106 607.82906751 95.76074219 613.27050781 C94.1776019 616.92246863 92.59457625 620.57447911 91.01171875 624.2265625 C90.74815582 624.83466766 90.4845929 625.44277283 90.21304321 626.06930542 C85.2390032 637.54644988 80.27409775 649.02753735 75.31039429 660.50915527 C68.65739442 675.89805372 61.99326226 691.28211071 55.32421875 706.6640625 C39.12253439 706.8369489 22.97600823 706.29576379 6.7890625 705.640625 C5.45180812 705.58730305 4.11454877 705.53410584 2.77728462 705.48102951 C-4.19658519 705.20414029 -11.17026503 704.92291798 -18.14379883 704.63769531 C-24.6251521 704.37272907 -31.10685439 704.11793157 -37.58878618 703.86755621 C-43.18776653 703.65081783 -48.78643025 703.42690412 -54.38490194 703.19740427 C-57.715116 703.06102071 -61.04540507 702.92846287 -64.37599373 702.80150223 C-68.06887477 702.65985756 -71.7610875 702.50649164 -75.45336914 702.35009766 C-76.55195251 702.31053452 -77.65053589 702.27097137 -78.78240967 702.23020935 C-79.78415726 702.18538925 -80.78590485 702.14056915 -81.81800842 702.09439087 C-82.68893662 702.05936274 -83.55986483 702.0243346 -84.45718479 701.98824501 C-86.67578125 701.6640625 -86.67578125 701.6640625 -89.67578125 699.6640625 C-89.07443359 698.35646973 -89.07443359 698.35646973 -88.4609375 697.02246094 C-80.83209812 680.4245903 -73.25745763 663.80545669 -65.86328125 647.1015625 C-60.0680692 634.01204784 -54.20931874 620.95282419 -48.30078125 607.9140625 C-47.90258179 607.03525421 -47.50438232 606.15644592 -47.09411621 605.25100708 C-46.69535278 604.37097015 -46.29658936 603.49093323 -45.88574219 602.58422852 C-45.08006639 600.80615766 -44.27440232 599.02808149 -43.46875 597.25 C-43.06991608 596.36982712 -42.67108215 595.48965424 -42.26016235 594.58280945 C-38.02896247 585.2418992 -33.81922384 575.89136696 -29.61328125 566.5390625 C-29.24398499 565.71796997 -28.87468872 564.89687744 -28.49420166 564.05090332 C-26.6324387 559.91132736 -24.77097115 555.77161865 -22.90966797 551.63183594 C-19.54215159 544.14245005 -16.17185237 536.6543164 -12.80178833 529.16607666 C-10.92634106 524.99878881 -9.05106999 520.83142169 -7.17578125 516.6640625 C-6.4257821 514.99739545 -5.6757821 513.33072879 -4.92578125 511.6640625 C-4.36890625 510.4265625 -4.36890625 510.4265625 -3.80078125 509.1640625 C-0.42578124 501.66406248 -0.42578124 501.66406248 0.69923401 499.16403198 C1.44918653 497.49746856 2.19913567 495.83090362 2.94908142 494.16433716 C4.8247801 489.9960783 6.70053767 485.82784597 8.57641602 481.65966797 C11.9431149 474.17875364 15.3094152 466.69766147 18.67347717 459.21556091 C26.80674035 441.12627852 34.95648691 423.04465926 43.13671875 404.9765625 C48.91967071 392.2033593 54.68651027 379.42342092 60.41455078 366.62548828 C64.93409776 356.52838694 69.47094991 346.43913517 74.01171875 336.3515625 C74.58202316 335.08454498 74.58202316 335.08454498 75.16384888 333.79193115 C77.10699497 329.47500216 79.05028514 325.15813805 80.99365234 320.84130859 C84.39803463 313.27891571 87.80110798 305.71593383 91.20425415 298.15298462 C93.0775196 293.98998534 94.95087376 289.82702598 96.82421875 285.6640625 C97.57421917 283.99739602 98.32421917 282.33072936 99.07421875 280.6640625 C100.57421875 277.33072917 102.07421875 273.99739583 103.57421875 270.6640625 C103.94541336 269.83918335 104.31660797 269.0143042 104.6990509 268.16442871 C105.44960363 266.4965383 106.20016312 264.82865093 106.95072937 263.1607666 C108.81732808 259.01284816 110.68381182 254.86487806 112.55004883 250.71679688 C116.02487759 242.993623 119.50080056 235.2709475 122.98068237 227.55004883 C124.60189837 223.95283382 126.22248 220.35533318 127.84301758 216.7578125 C128.60637477 215.06366026 129.37003339 213.36964379 130.1340332 211.67578125 C134.93339438 201.03488735 139.66964507 190.36912338 144.32421875 179.6640625 C134.84228041 172.53739166 125.15404948 165.8119524 115.26391602 159.26245117 C106.89422414 153.71878906 98.56946651 148.11249466 90.26171875 142.4765625 C88.96161069 141.59526355 87.6614804 140.71399739 86.36132812 139.83276367 C80.19203405 135.6501306 74.02623318 131.46240901 67.86488342 127.26808167 C65.03357861 125.3412084 62.20096694 123.41626155 59.36819458 121.49154663 C58.02074651 120.57522883 56.67394914 119.65795332 55.32785034 118.73965454 C53.45321971 117.4608155 51.57644458 116.18518155 49.69921875 114.91015625 C48.10207031 113.82238892 48.10207031 113.82238892 46.47265625 112.71264648 C43.15295931 110.55262965 39.77999824 108.59678552 36.32421875 106.6640625 C35.9375 107.75074219 35.9375 107.75074219 35.54296875 108.859375 C34.26584944 111.79838675 32.76095839 113.99113863 30.82421875 116.5390625 C27.67935557 120.7753451 24.66756644 125.07399768 21.76171875 129.4765625 C17.60478843 135.76215457 13.3863062 142.00323042 9.13671875 148.2265625 C8.49774658 149.16242188 7.85877441 150.09828125 7.20043945 151.0625 C5.89083725 152.97996269 4.58102146 154.89727952 3.27099609 156.81445312 C0.16105082 161.36665794 -2.94504628 165.92148455 -6.05078125 170.4765625 C-6.96077881 171.81122559 -6.96077881 171.81122559 -7.88916016 173.17285156 C-12.46959576 179.89210044 -17.04762847 186.61298395 -21.62213135 193.33627319 C-22.70339142 194.92528855 -23.78503887 196.51404029 -24.86669922 198.1027832 C-25.53717285 199.08851318 -26.20764648 200.07424316 -26.8984375 201.08984375 C-27.55730957 202.03166504 -28.21618164 202.97348633 -28.89501953 203.94384766 C-30.71011417 206.57738594 -30.71011417 206.57738594 -31.90576172 209.28662109 C-33.26075637 212.01145213 -34.40169731 213.62606157 -36.67578125 215.6640625 C-39.75390625 216.56570435 -39.75390625 216.56570435 -43.640625 217.16064453 C-44.37475081 217.27674985 -45.10887663 217.39285517 -45.86524868 217.51247883 C-48.46615139 217.91616877 -51.07028004 218.2912372 -53.67578125 218.6640625 C-55.74333191 218.96826678 -57.81088257 219.27247109 -59.87843323 219.57667542 C-67.18306537 220.63942723 -74.49370347 221.6578207 -81.8046875 222.67578125 C-84.49332473 223.05203649 -87.18183356 223.4292055 -89.87034607 223.80635071 C-96.17702678 224.69052866 -102.48412981 225.57165424 -108.79139894 226.45162374 C-115.98425613 227.45530367 -123.17662282 228.4624772 -130.36895478 229.46991289 C-145.13736272 231.53845747 -159.90636667 233.60271662 -174.67578125 235.6640625 C-173.97087001 232.61778342 -173.09155013 230.46975788 -171.36035156 227.85327148 C-170.87226013 227.10971909 -170.3841687 226.36616669 -169.88128662 225.6000824 C-169.3442511 224.79490677 -168.80721558 223.98973114 -168.25390625 223.16015625 C-167.69092834 222.30676163 -167.12795044 221.453367 -166.5479126 220.57411194 C-164.6796667 217.74604479 -162.80290631 214.92374247 -160.92578125 212.1015625 C-159.60843317 210.11217169 -158.29138032 208.12258536 -156.97460938 206.1328125 C-147.52107359 191.86635718 -137.96380723 177.67056142 -128.37097168 163.49752808 C-119.20394261 149.95232468 -110.1531255 136.33564845 -101.17578125 122.6640625 C-91.60915972 108.09506694 -81.94675298 93.59680588 -72.17578125 79.1640625 C-59.04053132 59.7618266 -46.11144878 40.22783738 -33.26335144 20.63441467 C-32.27282575 19.12505144 -31.26359004 17.62781304 -30.23670959 16.14294434 C-28.56549004 13.61653041 -28.56549004 13.61653041 -27.24363708 10.47619629 C-21.23110721 -1.45464001 -11.92773346 -0.12956403 0 0 Z " fill="#38E5AF" transform="translate(1475.67578125,780.3359375)"/>
<path d="M0 0 C0.76054688 0.58394531 1.52109375 1.16789063 2.3046875 1.76953125 C15.66359923 12.74787567 23.60910794 29.02466635 26 46 C27.75914884 65.74621307 23.01864565 84.01030882 10.75 99.8125 C-0.14442021 112.32363013 -13.70542667 120.63890814 -30 124 C-31.093125 124.226875 -32.18625 124.45375 -33.3125 124.6875 C-53.31112157 126.38229844 -70.86210202 122.58955931 -87 110.5 C-88.35385043 109.3572061 -89.68810167 108.19071897 -91 107 C-91.68320313 106.39671875 -92.36640625 105.7934375 -93.0703125 105.171875 C-106.91227338 92.22464163 -113.65088623 73.7010253 -114.375 55 C-113.57751394 34.4040556 -105.35737803 15.90072235 -90.3125 1.80078125 C-82.26421384 -5.2920116 -72.24481843 -10.02822061 -62 -13 C-61.22785156 -13.22429688 -60.45570312 -13.44859375 -59.66015625 -13.6796875 C-38.86111941 -18.73236533 -16.61682997 -13.07958399 0 0 Z " fill="#38E5AF" transform="translate(1767,717)"/>
<path d="M0 0 C21.099375 -0.061875 21.099375 -0.061875 42.625 -0.125 C47.03955566 -0.14320801 51.45411133 -0.16141602 56.00244141 -0.18017578 C61.46166992 -0.18920898 61.46166992 -0.18920898 64.03060913 -0.19088745 C65.79583754 -0.19392571 67.56106223 -0.20089005 69.32626343 -0.21115112 C89.1316329 -0.32035939 108.6516664 0.49917964 123.96875 14.84375 C132.43544435 23.88445753 135.52253281 35.27966294 135.1796875 47.5078125 C134.31936072 59.44017091 129.99143846 70.08803277 121.1015625 78.30859375 C117.92015494 80.86909463 114.57052763 83.0248145 111 85 C111.64066406 85.21914062 112.28132813 85.43828125 112.94140625 85.6640625 C119.43212717 88.04367106 125.62083164 90.61039048 129.05859375 96.953125 C132.13083244 104.65577129 132.15539205 112.45717244 132.2109375 120.63671875 C132.23898253 122.92774181 132.2676468 125.21875736 132.296875 127.50976562 C132.33827796 131.11108373 132.37518002 134.71225784 132.40136719 138.3137207 C132.42886858 141.79667761 132.47471013 145.27900299 132.5234375 148.76171875 C132.5283168 150.38360359 132.5283168 150.38360359 132.53329468 152.03825378 C132.54986115 153.03971939 132.56642761 154.041185 132.58349609 155.07299805 C132.59158295 155.9542485 132.5996698 156.83549896 132.60800171 157.74345398 C133.08302302 160.47792368 134.0661162 161.10797785 136 163 C136 164.32 136 165.64 136 167 C126.43 167 116.86 167 107 167 C103.62555752 160.25111504 103.62555752 160.25111504 103.59936523 156.23901367 C103.58602646 155.34756149 103.57268768 154.45610931 103.5589447 153.53764343 C103.55877098 152.11715446 103.55877098 152.11715446 103.55859375 150.66796875 C103.53878197 149.18119377 103.53878197 149.18119377 103.51856995 147.66438293 C103.47780388 144.50539349 103.45605372 141.3466922 103.4375 138.1875 C103.4136065 135.03910957 103.38528565 131.89098623 103.34571838 128.74275208 C103.32163125 126.78832781 103.30655427 124.8337638 103.30210876 122.87919617 C103.22072759 115.68180985 102.75715987 108.327148 99 102 C91.02457703 96.99217628 81.72268132 97.80675525 72.62890625 97.68359375 C70.92921692 97.65561707 70.92921692 97.65561707 69.19519043 97.6270752 C64.98436882 97.55905651 60.77342579 97.49873027 56.5625 97.4375 C47.136875 97.293125 37.71125 97.14875 28 97 C28 120.1 28 143.2 28 167 C18.76 167 9.52 167 0 167 C0 111.89 0 56.78 0 0 Z M28 25 C28 41.17 28 57.34 28 74 C35.52578944 74.04602929 43.05108602 74.08582067 50.5769043 74.10986328 C53.13453837 74.11989132 55.69216106 74.13351707 58.24975586 74.15087891 C61.93606382 74.17526779 65.62221954 74.1865154 69.30859375 74.1953125 C71.01069252 74.21079636 71.01069252 74.21079636 72.74717712 74.22659302 C83.10476345 74.22804117 92.13503936 73.30209112 100 66 C104.92440026 59.75553907 105.80795924 53.20806242 105.46875 45.40625 C104.58680928 38.99748074 102.74454639 34.16814731 97.58203125 30.08984375 C91.68381001 26.40454451 87.16832765 24.8713732 80.22167969 24.88647461 C78.48032745 24.88658791 78.48032745 24.88658791 76.70379639 24.88670349 C75.45576233 24.89186478 74.20772827 24.89702606 72.921875 24.90234375 C70.99930878 24.90446617 70.99930878 24.90446617 69.03790283 24.90663147 C65.6381636 24.91044099 62.2384674 24.92025786 58.83874512 24.93133545 C55.36646111 24.94158326 51.8941699 24.94619117 48.421875 24.95117188 C41.61454538 24.9613503 34.80733379 24.9809259 28 25 Z " fill="#38E5AF" transform="translate(2244,1679)"/>
<path d="M0 0 C15.64524953 14.71162704 23.17433578 35.55239927 24.45654297 56.64819336 C24.5522973 60.10155082 24.57882256 63.54537894 24.5625 67 C24.55831055 68.22138672 24.55412109 69.44277344 24.54980469 70.70117188 C24.25707405 94.23173275 18.11221097 116.96689141 1.25 134.25 C-16.97861843 150.43333165 -39.11431886 154.57151404 -62.75 153.25 C-82.18583094 151.34394111 -100.03240568 143.36898977 -112.75 128.25 C-130.85141471 103.63938969 -133.13506544 73.5652007 -128.75 44.25 C-125.18742764 23.67056295 -114.35348868 5.90047536 -97.484375 -6.40234375 C-68.98920112 -24.94307775 -25.79639631 -21.52634436 0 0 Z M-89.12109375 23.1484375 C-101.95232761 39.7028831 -102.35575765 62.69802708 -100.53173828 82.63574219 C-98.43578644 97.81942145 -91.73687624 110.5447208 -80.19140625 120.48828125 C-69.1914901 128.42582075 -55.71421485 128.14893258 -42.75 127.25 C-31.28963205 125.24110762 -21.92750406 118.8883722 -15.20703125 109.4765625 C-14.72621094 108.74179688 -14.24539062 108.00703125 -13.75 107.25 C-13.36199219 106.65960937 -12.97398437 106.06921875 -12.57421875 105.4609375 C-2.38052451 87.59245417 -3.23535069 63.11864164 -7.53125 43.72265625 C-10.77067745 31.97973174 -16.40378259 21.12625526 -26.75 14.25 C-47.80202697 3.64444485 -72.43302707 5.56982434 -89.12109375 23.1484375 Z " fill="#38E5AF" transform="translate(2147.75,1694.75)"/>
<path d="M0 0 C14.36757477 13.59893909 21.105617 34.26524758 22.20507812 53.60791016 C22.30332435 57.49114225 22.32916012 61.36557487 22.3125 65.25 C22.30926727 66.27530319 22.30926727 66.27530319 22.30596924 67.32131958 C22.18216389 91.79291441 16.43966841 113.52762152 -0.62890625 131.71875 C-16.84824501 147.32351744 -38.32403396 151.50490611 -60.0390625 151.21484375 C-79.2693723 150.61598884 -96.51973891 143.76400491 -110.75 130.8125 C-126.81761173 113.46904813 -132.60274769 90.61039165 -132.39111328 67.51782227 C-132.37497092 65.43374545 -132.39111518 63.35159868 -132.41015625 61.26757812 C-132.44659973 38.1708847 -125.46991067 16.22594675 -109.3359375 -0.7890625 C-80.13610003 -28.42636686 -29.08289538 -26.18459996 0 0 Z M-90.2734375 19.65234375 C-103.37820726 37.47127277 -105.34074943 59.9600969 -102.49609375 81.3828125 C-99.79467527 96.41813595 -93.77879538 109.99425412 -81 119 C-69.24759132 126.17939482 -54.65847501 126.81806588 -41.34765625 124.3125 C-28.79332596 120.43471458 -19.92096505 112.82051591 -13.75 101.3125 C-4.71785009 82.23659939 -4.57709652 57.51770421 -10.8125 37.625 C-15.9255699 23.63429224 -23.32363784 14.69811296 -36.73046875 8.3125 C-54.22523033 1.28951327 -77.39538607 5.76724091 -90.2734375 19.65234375 Z " fill="#38E5AF" transform="translate(1258,1697)"/>
<path d="M0 0 C14.90091974 13.47530854 22.36762689 31.44311348 25.17651367 51.09057617 C25.38989161 55.78941691 25.40459824 60.487686 25.41674805 65.19067383 C25.4263379 67.42463111 25.45735051 69.65762004 25.48901367 71.89135742 C25.66498027 95.53613351 19.23412703 117.09546803 2.74682617 134.67260742 C-13.75248113 150.19399226 -34.8140162 154.97179345 -56.91723633 154.37573242 C-77.22710478 153.42619045 -95.6479472 145.8398302 -109.82348633 131.09057617 C-124.59586591 113.27596397 -129.24017325 91.46574748 -129.13598633 68.84057617 C-129.13107178 67.57149414 -129.12615723 66.30241211 -129.12109375 64.99487305 C-128.82864065 41.49064239 -122.51327938 19.42228434 -105.82348633 2.09057617 C-77.98321683 -22.66932738 -28.75459477 -24.71575441 0 0 Z M-71.82348633 12.09057617 C-72.64719727 12.48116211 -73.4709082 12.87174805 -74.31958008 13.27416992 C-86.1196863 19.61425744 -92.94815016 29.55847432 -96.75317383 42.17260742 C-102.5654721 64.17630802 -101.57299915 88.41958419 -90.44848633 108.58276367 C-84.34061332 118.44166738 -75.79624167 124.60339136 -64.59692383 127.70776367 C-47.79817106 130.02646476 -33.57936676 127.9074865 -19.88598633 117.63745117 C-9.37804152 108.34917853 -5.05852088 92.54674341 -3.82348633 79.09057617 C-2.72467824 59.61749071 -3.92717048 38.61538085 -17.01879883 23.05151367 C-24.13755972 15.31640984 -33.16445574 9.59361123 -43.92895508 8.96826172 C-58.23767049 8.29620185 -58.23767049 8.29620185 -71.82348633 12.09057617 Z " fill="#38E5AF" transform="translate(1033.823486328125,1693.909423828125)"/>
<path d="M0 0 C39.27 0 78.54 0 119 0 C119 7.92 119 15.84 119 24 C88.97 24 58.94 24 28 24 C28 39.18 28 54.36 28 70 C54.73 70 81.46 70 109 70 C109 77.59 109 85.18 109 93 C82.27 93 55.54 93 28 93 C28 109.17 28 125.34 28 142 C60.34 142 92.68 142 126 142 C126 150.25 126 158.5 126 167 C84.42 167 42.84 167 0 167 C0 111.89 0 56.78 0 0 Z " fill="#38E5AF" transform="translate(2457,1679)"/>
<path d="M0 0 C9.62074584 8.09410054 15.37179195 17.78689741 17.609375 30.1953125 C17.609375 32.8353125 17.609375 35.4753125 17.609375 38.1953125 C8.369375 39.1853125 -0.870625 40.1753125 -10.390625 41.1953125 C-11.380625 35.7503125 -11.380625 35.7503125 -12.390625 30.1953125 C-15.31183624 22.71509617 -20.07317031 17.49961767 -27.390625 14.1953125 C-39.49716486 10.24981066 -51.90147299 9.62125896 -63.703125 14.9453125 C-68.77590251 17.72253009 -71.52497949 21.10989378 -73.765625 26.5078125 C-74.76106672 32.38091866 -74.42225485 37.04952242 -71.828125 42.4453125 C-66.89684505 48.00880783 -60.43594196 50.91052837 -53.453125 53.1328125 C-52.69878174 53.38023193 -51.94443848 53.62765137 -51.16723633 53.88256836 C-44.38789845 56.03158524 -37.50321612 57.65428087 -30.578125 59.2578125 C-21.84509138 61.28041943 -13.54543026 63.38973671 -5.390625 67.1953125 C-4.58109375 67.57171875 -3.7715625 67.948125 -2.9375 68.3359375 C7.68536972 73.75576899 15.68662393 81.73771476 19.421875 93.1328125 C22.92055138 107.63020142 20.97390087 122.10033174 13.484375 135.0078125 C4.30579897 148.45276288 -10.07616003 153.90673265 -25.390625 157.1953125 C-46.27504661 160.40180956 -68.77142134 158.84668819 -86.703125 146.8203125 C-97.15980279 139.04054423 -103.97987859 129.89652486 -107.390625 117.1953125 C-107.6175 116.3703125 -107.844375 115.5453125 -108.078125 114.6953125 C-108.55679409 110.86595976 -108.46618486 107.04886555 -108.390625 103.1953125 C-99.31679018 101.50524923 -90.64298099 100.00648891 -81.390625 100.1953125 C-81.17148438 101.2575 -80.95234375 102.3196875 -80.7265625 103.4140625 C-78.27439382 114.61300563 -75.21526963 122.14432161 -65.53125 128.9453125 C-53.83481666 135.77534657 -40.41793327 135.04371484 -27.70703125 132.109375 C-21.20595067 130.31755774 -16.13062192 128.09299995 -12.390625 122.1953125 C-9.29761809 115.7963743 -9.10378439 107.71851872 -11.04296875 100.90234375 C-14.71608192 93.76105505 -20.93492518 91.17132473 -28.140625 88.8203125 C-34.50469791 86.88664012 -40.95118295 85.28090365 -47.39941406 83.65576172 C-87.95775108 73.40750921 -87.95775108 73.40750921 -98.85546875 56.98828125 C-105.29612088 45.43244452 -105.24392042 32.79312128 -102.390625 20.1953125 C-98.41561242 8.42209816 -90.49409737 -0.16395408 -79.453125 -5.7421875 C-55.01180749 -17.03301352 -21.87433347 -16.74560557 0 0 Z " fill="#38E5AF" transform="translate(1729.390625,1689.8046875)"/>
<path d="M0 0 C9.24 0 18.48 0 28 0 C28.495 37.62 28.495 37.62 29 76 C33.53372131 71.46627869 37.8001222 67.16657781 41.9486084 62.35864258 C49.8105073 53.3192132 57.9670732 44.54587599 66.23057938 35.87386322 C69.57568016 32.35816718 72.88016861 28.81802383 76.109375 25.1953125 C99.1226811 -0.54651952 99.1226811 -0.54651952 113.79101562 -1.83984375 C122.26466266 -2.28739844 130.65358877 -1.44231101 139 0 C137.35606624 4.21592931 134.23644614 7.03022614 131.08154297 10.14550781 C130.17402283 11.05346603 130.17402283 11.05346603 129.24816895 11.97976685 C127.25088001 13.9756645 125.24660442 15.96438799 123.2421875 17.953125 C121.85455498 19.33702668 120.4673639 20.72137112 119.08059692 22.10614014 C115.432074 25.7470322 111.77758448 29.38187778 108.12182617 33.01550293 C104.39140211 36.72545688 100.66664357 40.44108927 96.94140625 44.15625 C89.63314253 51.44307344 82.31856384 58.72352265 75 66 C75.6252507 67.10226425 76.2505014 68.2045285 76.8946991 69.3401947 C77.24640262 69.96021834 77.59810614 70.58024199 77.96046734 71.21905422 C79.31711545 73.5432878 80.81452453 75.74115798 82.36328125 77.94140625 C82.99492188 78.84310547 83.6265625 79.74480469 84.27734375 80.67382812 C84.94894531 81.62708984 85.62054687 82.58035156 86.3125 83.5625 C91.75985082 91.3408796 97.16620538 99.14330133 102.5 107 C107.61899324 114.53380359 112.78895125 122.02958895 118 129.5 C120.66850296 133.33205814 123.33481267 137.16563522 126 141 C126.70882324 142.01884277 127.41764648 143.03768555 128.14794922 144.08740234 C130.25101912 147.11629827 132.34539277 150.15102483 134.4375 153.1875 C135.08267578 154.11433594 135.72785156 155.04117187 136.39257812 155.99609375 C136.98361328 156.8571875 137.57464844 157.71828125 138.18359375 158.60546875 C138.70493896 159.35981201 139.22628418 160.11415527 139.76342773 160.89135742 C140.97322762 162.95434688 141.56102123 164.66219821 142 167 C137.44726373 167.27382288 132.89939079 167.47230307 128.34033203 167.60424805 C126.79358419 167.65927006 125.24740097 167.73412755 123.70263672 167.82983398 C111.15247248 168.58738102 111.15247248 168.58738102 106.66210938 165.27587891 C104.92888979 162.94645784 103.50276399 160.57191375 102.13427734 158.01382446 C100.27699995 154.71636757 98.13048025 151.61549722 96.0234375 148.47392273 C94.12299899 145.63787919 92.24769695 142.78667143 90.37890625 139.9296875 C89.74098145 138.95483398 89.10305664 137.97998047 88.44580078 136.97558594 C87.14860026 134.99186198 85.85139974 133.00813802 84.55419922 131.02441406 C75.34977975 116.90049757 75.34977975 116.90049757 65.58789062 103.16162109 C63.24395831 99.97078826 61.10802982 96.66209186 59 93.3125 C58.41025391 92.3853418 58.41025391 92.3853418 57.80859375 91.43945312 C56.86921617 89.9616518 55.934095 88.48114601 55 87 C54.2790918 87.43481689 53.55818359 87.86963379 52.81542969 88.31762695 C51.06524655 89.36345699 49.3021276 90.38831006 47.52050781 91.37963867 C39.51678735 96.17532549 32.28365574 102.05943281 29 111 C25.29959908 129.05152411 27.17613113 148.74480026 28 167 C18.76 167 9.52 167 0 167 C0 111.89 0 56.78 0 0 Z " fill="#38E5AF" transform="translate(717,1679)"/>
<path d="M0 0 C104.39956803 0 104.39956803 0 121.03125 14.80859375 C132.36681465 26.76562576 134.61226022 41.04658846 134.3125 56.78125 C133.77886905 69.14370041 128.91853632 80.55025332 120 89.1875 C101.09941952 104.80102301 79.22613259 103.40629884 56.0625 103.1875 C46.801875 103.125625 37.54125 103.06375 28 103 C28 124.12 28 145.24 28 167 C18.76 167 9.52 167 0 167 C0 111.89 0 56.78 0 0 Z M28 25 C28 42.82 28 60.64 28 79 C36.188125 79.04125 44.37625 79.0825 52.8125 79.125 C55.37491455 79.14320801 57.9373291 79.16141602 60.57739258 79.18017578 C62.64143668 79.18602495 64.70548312 79.1911195 66.76953125 79.1953125 C68.33689026 79.2106604 68.33689026 79.2106604 69.93591309 79.22631836 C81.01755247 79.22890844 90.31816917 78.28912047 99 71 C104.95083034 64.89658427 105.37235037 58.10935727 105.29101562 49.97680664 C105.13215188 43.58621831 104.6945324 38.9858332 100.265625 34.078125 C93.31457717 27.55814991 85.997017 24.8641756 76.4753418 24.88647461 C75.37959839 24.88659546 74.28385498 24.88671631 73.15490723 24.88684082 C71.44434143 24.89451477 71.44434143 24.89451477 69.69921875 24.90234375 C68.1144574 24.90385437 68.1144574 24.90385437 66.49768066 24.90539551 C62.56094269 24.91061721 58.62422023 24.92457847 54.6875 24.9375 C45.880625 24.958125 37.07375 24.97875 28 25 Z " fill="#38E5AF" transform="translate(1822,1679)"/>
<path d="M0 0 C9.24 0 18.48 0 28 0 C28 46.86 28 93.72 28 142 C57.7 142 87.4 142 118 142 C118 150.25 118 158.5 118 167 C79.06 167 40.12 167 0 167 C0 111.89 0 56.78 0 0 Z " fill="#38E5AF" transform="translate(1352,1679)"/>
</svg>
